# xmcd
#
# Track frame offsets:
#	150
#	15575
#	41677
#	67362
#	94480
#	114672
#	144767
#	166677
#	185960
#	206205
#	231512
#
# Disc length: 3347 seconds
#
# Revision: 0
# Processed by: cddbd v1.4PL0 Copyright (c) Steve Scherf et al.
# Submitted via: audiograbber 1.81.01
#
DISCID=a60d110b
DTITLE=Бигуди - Москва поверила слезам...
DYEAR=2002
DGENRE=Club
TTITLE0=Отвис-т
TTITLE1=Москва поверила слезам...
TTITLE2=Мануэле хорошо...
TTITLE3=Полюбить Гурченко (концерт в Сан-Ремо)
TTITLE4=Renault-Peugeot (Fiat-Zhiguli mix)
TTITLE5=Из жизни отдыхающих
TTITLE6=Re: я тебя люблю
TTITLE7=Фарцовка
TTITLE8=Как скелеты монпансье покупали
TTITLE9=Лора (по-прежнему танцует)
TTITLE10=Фантики (bonus)
EXTD=
EXTT0=
EXTT1=
EXTT2=
EXTT3=
EXTT4=
EXTT5=
EXTT6=
EXTT7=
EXTT8=
EXTT9=
EXTT10=
PLAYORDER=
